<?xml version="1.0" encoding="utf-8"?>
<!-- Generator: Adobe Illustrator 15.0.0, SVG Export Plug-In . SVG Version: 6.00 Build 0)  -->
<!DOCTYPE svg PUBLIC "-//W3C//DTD SVG 1.1//EN" "http://www.w3.org/Graphics/SVG/1.1/DTD/svg11.dtd">
<svg version="1.1" id="Слой_1" xmlns="http://www.w3.org/2000/svg" xmlns:xlink="http://www.w3.org/1999/xlink" x="0px" y="0px"
	 width="100px" height="100px" viewBox="0 0 100 100" enable-background="new 0 0 100 100" xml:space="preserve">
<g>
	<path fill="#FFFFFF" d="M49.811,90.341L9.559,50.09L50.213,9.437l40.252,40.25L49.811,90.341z M10.973,50.09l38.837,38.836
		l39.241-39.24L50.213,10.851L10.973,50.09z"/>
</g>
<g>
	<path fill="#FFFFFF" d="M79,79H21V22h58V79z M22,78h56V23H22V78z"/>
</g>
<g>
	<path fill="#FFFFFF" d="M49.142,75.566c-0.345-0.013-0.688-0.03-1.028-0.055l0.072-0.998c0.329,0.024,0.659,0.042,0.99,0.053
		L49.142,75.566z M52.231,75.485l-0.086-0.996c0.33-0.029,0.658-0.063,0.985-0.104l0.125,0.992
		C52.917,75.42,52.575,75.456,52.231,75.485z M45.052,75.102c-0.339-0.066-0.675-0.139-1.009-0.219l0.232-0.973
		c0.32,0.076,0.643,0.146,0.967,0.209L45.052,75.102z M56.294,74.807l-0.244-0.971c0.321-0.08,0.64-0.167,0.956-0.26l0.281,0.959
		C56.959,74.632,56.627,74.723,56.294,74.807z M41.084,73.986c-0.324-0.119-0.645-0.246-0.962-0.379l0.386-0.922
		c0.304,0.127,0.612,0.248,0.923,0.363L41.084,73.986z M60.193,73.483l-0.395-0.918c0.302-0.13,0.602-0.268,0.897-0.409l0.434,0.9
		C60.82,73.206,60.509,73.348,60.193,73.483z M37.346,72.246c-0.299-0.17-0.595-0.347-0.886-0.527l0.527-0.85
		c0.281,0.175,0.565,0.344,0.853,0.508L37.346,72.246z M63.828,71.553l-0.539-0.842c0.277-0.178,0.553-0.361,0.823-0.55l0.572,0.82
		C64.402,71.178,64.117,71.367,63.828,71.553z M33.938,69.932c-0.268-0.215-0.532-0.436-0.791-0.661l0.657-0.754
		c0.249,0.218,0.502,0.429,0.76,0.636L33.938,69.932z M67.109,69.066l-0.666-0.746c0.246-0.22,0.488-0.444,0.726-0.674l0.695,0.719
		C67.617,68.604,67.365,68.839,67.109,69.066z M30.941,67.105c-0.23-0.255-0.455-0.514-0.675-0.777l0.768-0.641
		c0.212,0.254,0.428,0.503,0.649,0.748L30.941,67.105z M69.954,66.089l-0.775-0.631c0.209-0.257,0.411-0.518,0.609-0.781l0.801,0.6
		C70.383,65.552,70.171,65.822,69.954,66.089z M28.434,63.84c-0.186-0.287-0.367-0.579-0.542-0.873l0.859-0.512
		c0.169,0.284,0.343,0.564,0.522,0.842L28.434,63.84z M72.289,62.696l-0.865-0.5c0.165-0.286,0.324-0.576,0.477-0.868l0.887,0.463
		C72.627,62.097,72.462,62.398,72.289,62.696z M26.48,60.218c-0.138-0.313-0.269-0.63-0.395-0.949l0.931-0.365
		c0.121,0.308,0.247,0.611,0.379,0.912L26.48,60.218z M74.054,58.971l-0.936-0.354c0.117-0.309,0.228-0.621,0.332-0.936l0.949,0.314
		C74.291,58.324,74.175,58.648,74.054,58.971z M25.133,56.328c-0.086-0.332-0.165-0.666-0.238-1.003l0.978-0.211
		c0.07,0.323,0.146,0.646,0.228,0.964L25.133,56.328z M75.194,55.007l-0.98-0.197c0.065-0.323,0.125-0.647,0.177-0.975l0.988,0.158
		C75.323,54.334,75.262,54.672,75.194,55.007z M24.428,52.271c-0.031-0.341-0.056-0.684-0.074-1.028l0.999-0.051
		c0.017,0.331,0.041,0.66,0.071,0.987L24.428,52.271z M75.686,50.918l-1-0.038c0.013-0.329,0.02-0.659,0.02-0.991
		c0-0.21-0.003-0.42-0.008-0.629l1-0.022c0.005,0.216,0.008,0.434,0.008,0.652C75.705,50.234,75.698,50.577,75.686,50.918z
		 M25.375,48.22l-0.998-0.066c0.023-0.344,0.053-0.686,0.089-1.027l0.994,0.106C25.426,47.561,25.397,47.89,25.375,48.22z
		 M74.446,46.303c-0.048-0.328-0.103-0.654-0.162-0.978l0.982-0.184c0.063,0.337,0.12,0.676,0.17,1.017L74.446,46.303z
		 M25.954,44.305l-0.975-0.226c0.078-0.335,0.162-0.669,0.252-1l0.965,0.265C26.109,43.663,26.028,43.982,25.954,44.305z
		 M73.563,42.445c-0.1-0.315-0.206-0.628-0.318-0.938l0.941-0.34c0.116,0.323,0.227,0.648,0.33,0.977L73.563,42.445z M27.153,40.532
		l-0.925-0.38c0.131-0.319,0.268-0.634,0.411-0.947l0.909,0.416C27.411,39.921,27.279,40.225,27.153,40.532z M72.071,38.78
		c-0.149-0.295-0.304-0.586-0.464-0.875l0.875-0.485c0.166,0.299,0.326,0.602,0.481,0.908L72.071,38.78z M28.946,37l-0.853-0.522
		c0.18-0.293,0.366-0.583,0.557-0.869l0.831,0.557C29.297,36.439,29.119,36.718,28.946,37z M70.012,35.403
		c-0.194-0.267-0.394-0.531-0.598-0.79l0.785-0.619c0.212,0.27,0.419,0.543,0.621,0.821L70.012,35.403z M31.279,33.8l-0.758-0.652
		c0.224-0.26,0.453-0.516,0.687-0.768l0.732,0.682C31.715,33.304,31.495,33.55,31.279,33.8z M67.439,32.395
		c-0.234-0.233-0.473-0.461-0.717-0.685l0.678-0.736c0.252,0.232,0.5,0.47,0.744,0.712L67.439,32.395z M34.092,31.013l-0.646-0.764
		c0.263-0.222,0.529-0.438,0.8-0.649l0.615,0.789C34.601,30.592,34.344,30.8,34.092,31.013z M64.421,29.833
		c-0.27-0.193-0.542-0.381-0.817-0.563l0.551-0.834c0.287,0.189,0.569,0.384,0.849,0.585L64.421,29.833z M37.309,28.709
		l-0.516-0.856c0.294-0.177,0.591-0.348,0.893-0.513l0.479,0.877C37.877,28.376,37.591,28.54,37.309,28.709z M61.03,27.785
		c-0.296-0.148-0.594-0.29-0.896-0.425l0.41-0.912c0.314,0.142,0.626,0.289,0.934,0.443L61.03,27.785z M40.851,26.951l-0.372-0.929
		c0.318-0.127,0.641-0.249,0.965-0.363l0.333,0.943C41.465,26.712,41.157,26.829,40.851,26.951z M57.355,26.307
		c-0.314-0.098-0.632-0.189-0.952-0.275l0.26-0.966c0.332,0.089,0.661,0.185,0.989,0.286L57.355,26.307z M44.632,25.784
		l-0.217-0.977c0.334-0.074,0.671-0.142,1.01-0.203l0.178,0.984C45.277,25.647,44.954,25.713,44.632,25.784z M53.494,25.44
		c-0.327-0.046-0.654-0.085-0.983-0.119l0.1-0.995c0.343,0.034,0.684,0.076,1.022,0.124L53.494,25.44z M48.553,25.239l-0.059-0.998
		c0.342-0.02,0.686-0.034,1.03-0.04l0.018,1C49.211,25.207,48.881,25.22,48.553,25.239z"/>
</g>
<g>
	<g>
		<path fill="#FFFFFF" d="M50.024,59.901l8.986-23.347h3.615L51.93,63.223h-3.858L37.374,36.555h3.664L50.024,59.901z"/>
	</g>
</g>
<g>
	<path fill="#FFFFFF" d="M50,99l-0.578-0.003l0.011-1L50,98l0.424-0.002l0.007,1L50,99z M54.464,98.798l-0.09-0.996
		c0.329-0.03,0.657-0.063,0.984-0.101l0.111,0.994C55.137,98.732,54.801,98.768,54.464,98.798z M45.389,98.784
		c-0.336-0.032-0.671-0.067-1.004-0.105l0.114-0.994c0.327,0.038,0.655,0.073,0.984,0.104L45.389,98.784z M59.462,98.077
		l-0.193-0.98c0.323-0.064,0.646-0.132,0.968-0.202l0.215,0.977C60.122,97.943,59.793,98.013,59.462,98.077z M40.395,98.049
		c-0.331-0.066-0.66-0.136-0.988-0.209l0.217-0.977c0.321,0.071,0.644,0.141,0.968,0.205L40.395,98.049z M64.355,96.84l-0.295-0.955
		c0.315-0.098,0.629-0.198,0.941-0.303l0.316,0.949C65,96.638,64.679,96.74,64.355,96.84z M35.505,96.797
		c-0.324-0.101-0.646-0.206-0.965-0.313l0.319-0.947c0.313,0.104,0.627,0.207,0.943,0.306L35.505,96.797z M69.094,95.097
		l-0.396-0.918c0.303-0.131,0.604-0.264,0.903-0.398l0.412,0.91C69.708,94.829,69.402,94.964,69.094,95.097z M30.765,95.036
		c-0.311-0.134-0.619-0.271-0.925-0.411l0.415-0.91c0.301,0.138,0.603,0.271,0.907,0.403L30.765,95.036z M73.618,92.87l-0.488-0.873
		c0.286-0.16,0.572-0.324,0.856-0.49l0.506,0.863C74.202,92.539,73.91,92.706,73.618,92.87z M26.238,92.79
		c-0.294-0.166-0.586-0.334-0.876-0.506l0.509-0.861c0.285,0.168,0.571,0.334,0.859,0.496L26.238,92.79z M77.887,90.185
		l-0.574-0.818c0.269-0.189,0.536-0.381,0.801-0.576l0.594,0.805C78.437,89.794,78.163,89.991,77.887,90.185z M21.971,90.085
		c-0.275-0.195-0.547-0.393-0.818-0.593l0.595-0.805c0.266,0.196,0.533,0.392,0.802,0.583L21.971,90.085z M81.858,87.069
		l-0.656-0.754c0.248-0.217,0.494-0.436,0.738-0.657l0.672,0.74C82.364,86.624,82.112,86.849,81.858,87.069z M18.01,86.954
		c-0.253-0.223-0.504-0.447-0.753-0.676l0.676-0.736c0.243,0.223,0.489,0.443,0.736,0.66L18.01,86.954z M85.487,83.558l-0.732-0.68
		c0.225-0.242,0.447-0.486,0.668-0.732l0.744,0.668C85.942,83.063,85.716,83.312,85.487,83.558z M14.394,83.431
		c-0.229-0.247-0.455-0.496-0.678-0.748l0.748-0.664c0.219,0.246,0.44,0.491,0.664,0.732L14.394,83.431z M88.732,79.692
		l-0.797-0.604c0.198-0.263,0.395-0.528,0.588-0.796l0.811,0.586C89.137,79.152,88.937,79.424,88.732,79.692z M11.161,79.553
		c-0.202-0.27-0.4-0.541-0.596-0.814l0.813-0.582c0.192,0.268,0.387,0.533,0.584,0.797L11.161,79.553z M91.563,75.51l-0.855-0.518
		c0.171-0.282,0.338-0.566,0.502-0.853l0.867,0.496C91.908,74.93,91.737,75.222,91.563,75.51z M8.349,75.363
		c-0.172-0.288-0.342-0.578-0.508-0.87l0.868-0.496c0.164,0.286,0.33,0.57,0.499,0.853L8.349,75.363z M93.942,71.052l-0.906-0.424
		c0.141-0.3,0.277-0.601,0.412-0.903l0.914,0.406C94.226,70.439,94.085,70.746,93.942,71.052z M5.988,70.905
		c-0.141-0.305-0.279-0.61-0.415-0.918l0.916-0.402c0.132,0.302,0.268,0.602,0.406,0.898L5.988,70.905z M95.844,66.369l-0.945-0.326
		c0.108-0.313,0.214-0.627,0.315-0.942l0.951,0.307C96.062,65.729,95.954,66.05,95.844,66.369z M4.106,66.227
		c-0.109-0.317-0.214-0.638-0.317-0.959l0.953-0.305c0.1,0.315,0.204,0.628,0.311,0.939L4.106,66.227z M97.244,61.514l-0.975-0.225
		c0.074-0.322,0.146-0.644,0.214-0.967l0.979,0.205C97.393,60.856,97.32,61.186,97.244,61.514z M2.723,61.371
		c-0.075-0.327-0.146-0.656-0.215-0.986l0.979-0.203c0.067,0.324,0.137,0.646,0.21,0.967L2.723,61.371z M98.127,56.544l-0.992-0.123
		c0.04-0.327,0.078-0.654,0.112-0.982l0.994,0.102C98.207,55.876,98.169,56.211,98.127,56.544z M1.855,56.398
		c-0.04-0.334-0.077-0.669-0.111-1.005l0.995-0.1c0.033,0.33,0.069,0.657,0.109,0.983L1.855,56.398z M98.49,51.511l-1-0.021
		c0.007-0.329,0.01-0.659,0.01-0.989h1C98.5,50.837,98.497,51.174,98.49,51.511z M1.507,51.362C1.502,51.075,1.5,50.788,1.5,50.5
		v-0.146h1V50.5c0,0.282,0.002,0.563,0.007,0.845L1.507,51.362z M97.494,49.798c-0.005-0.33-0.013-0.659-0.024-0.988l1-0.035
		c0.012,0.335,0.02,0.671,0.024,1.008L97.494,49.798z M2.674,46.403l-0.996-0.085c0.028-0.336,0.061-0.671,0.096-1.005l0.994,0.105
		C2.733,45.746,2.702,46.074,2.674,46.403z M97.17,44.866c-0.039-0.328-0.082-0.655-0.127-0.981l0.99-0.138
		c0.047,0.333,0.09,0.667,0.129,1.002L97.17,44.866z M3.351,41.506l-0.982-0.188c0.064-0.331,0.13-0.661,0.2-0.99l0.979,0.208
		C3.478,40.859,3.413,41.182,3.351,41.506z M96.335,39.992c-0.073-0.322-0.149-0.643-0.229-0.962l0.971-0.24
		c0.081,0.327,0.159,0.654,0.232,0.983L96.335,39.992z M4.534,36.706l-0.957-0.29c0.098-0.324,0.2-0.647,0.304-0.968l0.951,0.311
		C4.729,36.073,4.63,36.389,4.534,36.706z M94.993,35.235c-0.106-0.313-0.216-0.625-0.327-0.935l0.939-0.34
		c0.115,0.316,0.227,0.634,0.335,0.953L94.993,35.235z M6.216,32.05l-0.922-0.389c0.131-0.312,0.266-0.621,0.404-0.929l0.913,0.408
		C6.477,31.441,6.345,31.745,6.216,32.05z M93.164,30.644c-0.138-0.299-0.278-0.595-0.422-0.89l0.898-0.438
		c0.147,0.302,0.292,0.606,0.432,0.912L93.164,30.644z M8.376,27.597L7.5,27.115c0.163-0.296,0.329-0.589,0.498-0.881l0.865,0.501
		C8.698,27.021,8.535,27.308,8.376,27.597z M90.865,26.272c-0.168-0.283-0.339-0.564-0.514-0.844l0.85-0.528
		c0.178,0.285,0.352,0.572,0.523,0.861L90.865,26.272z M10.988,23.395l-0.821-0.571c0.192-0.277,0.388-0.552,0.586-0.824
		l0.809,0.589C11.367,22.855,11.176,23.124,10.988,23.395z M88.124,22.161c-0.197-0.264-0.396-0.527-0.599-0.787l0.789-0.613
		c0.206,0.265,0.409,0.533,0.61,0.803L88.124,22.161z M14.02,19.487l-0.757-0.653c0.22-0.255,0.442-0.508,0.668-0.758l0.743,0.669
		C14.454,18.99,14.236,19.237,14.02,19.487z M84.97,18.354c-0.224-0.243-0.449-0.483-0.677-0.721l0.721-0.692
		c0.233,0.243,0.465,0.488,0.692,0.736L84.97,18.354z M17.44,15.915l-0.686-0.728c0.245-0.231,0.492-0.459,0.742-0.685l0.67,0.742
		C17.923,15.465,17.681,15.688,17.44,15.915z M81.438,14.892c-0.247-0.219-0.497-0.435-0.748-0.648l0.646-0.763
		c0.257,0.217,0.511,0.438,0.764,0.661L81.438,14.892z M21.21,12.716l-0.606-0.795c0.268-0.204,0.537-0.405,0.808-0.604l0.591,0.808
		C21.736,12.319,21.472,12.517,21.21,12.716z M77.566,11.813c-0.269-0.192-0.539-0.381-0.812-0.567l0.564-0.826
		c0.278,0.19,0.555,0.383,0.829,0.58L77.566,11.813z M25.29,9.925l-0.521-0.854c0.287-0.175,0.576-0.348,0.867-0.517l0.502,0.865
		C25.853,9.585,25.57,9.754,25.29,9.925z M73.397,9.152c-0.288-0.163-0.577-0.323-0.868-0.48l0.475-0.88
		c0.297,0.16,0.592,0.323,0.886,0.49L73.397,9.152z M29.635,7.575l-0.43-0.903c0.303-0.144,0.608-0.285,0.914-0.423l0.41,0.912
		C30.229,7.295,29.932,7.434,29.635,7.575z M68.97,6.94c-0.302-0.132-0.606-0.261-0.913-0.387l0.381-0.925
		c0.313,0.129,0.623,0.261,0.933,0.395L68.97,6.94z M34.2,5.691l-0.333-0.943c0.317-0.112,0.636-0.22,0.956-0.326l0.313,0.95
		C34.823,5.475,34.511,5.581,34.2,5.691z M64.335,5.202c-0.313-0.1-0.628-0.195-0.945-0.288l0.281-0.96
		c0.323,0.095,0.646,0.193,0.967,0.295L64.335,5.202z M38.942,4.293L38.71,3.321c0.327-0.078,0.655-0.152,0.985-0.224l0.212,0.978
		C39.584,4.144,39.263,4.217,38.942,4.293z M59.551,3.96c-0.323-0.065-0.647-0.128-0.972-0.188l0.18-0.983
		c0.332,0.061,0.662,0.125,0.991,0.192L59.551,3.96z M43.805,3.4l-0.129-0.991c0.333-0.043,0.668-0.083,1.003-0.12l0.108,0.994
		C44.459,3.318,44.131,3.357,43.805,3.4z M54.662,3.226c-0.327-0.032-0.656-0.061-0.985-0.085l0.076-0.997
		c0.336,0.026,0.672,0.055,1.007,0.087L54.662,3.226z M48.734,3.017l-0.026-1C49.043,2.008,49.379,2.002,49.717,2l0.006,1
		C49.392,3.002,49.063,3.008,48.734,3.017z"/>
</g>
</svg>
